<svg id="Capa_1" data-name="Capa 1" xmlns="http://www.w3.org/2000/svg" viewBox="0 0 310.8 275.92"><defs><style>.cls-1{fill:#117e89;}.cls-2{fill:#0b353f;}</style></defs><title>marca - raha grande</title><path class="cls-1" d="M707.57,265.88A51.92,51.92,0,1,1,759.49,214,52,52,0,0,1,707.57,265.88Zm0-90.53A38.61,38.61,0,1,0,746.17,214,38.65,38.65,0,0,0,707.57,175.35Z" transform="translate(-551.6 -162.04)"/><path class="cls-2" d="M565.19,375a21.42,21.42,0,0,1,9.13-9.42,27.92,27.92,0,0,1,12.79-2.85h2.63l2.19,12.71H589.3a37.88,37.88,0,0,0-8.69.88,28,28,0,0,0-6.65,2.41,21.4,21.4,0,0,0-5,3.58,27.92,27.92,0,0,0-3.73,4.38v50H551.6V363h13.59Z" transform="translate(-551.6 -162.04)"/><path class="cls-2" d="M649.24,434.16a33.83,33.83,0,0,1-15.41,3.8A35.61,35.61,0,0,1,620,435.33a30.59,30.59,0,0,1-10.82-7.53,33.91,33.91,0,0,1-7-11.83,45.43,45.43,0,0,1-2.49-15.42,42.36,42.36,0,0,1,2.85-15.78,37.34,37.34,0,0,1,7.89-12.35,35.27,35.27,0,0,1,12-8,39.41,39.41,0,0,1,15.12-2.85,47.19,47.19,0,0,1,12.27,1.53,62.71,62.71,0,0,1,11.11,4.17l.29-4.24h12.71v47.64a23.58,23.58,0,0,0,1.54,8.91,11.51,11.51,0,0,0,6.21,6l-6.72,12a20.07,20.07,0,0,1-9-5.92,24,24,0,0,1-4.9-9.28A26.77,26.77,0,0,1,649.24,434.16Zm1.39-58.37a42.69,42.69,0,0,0-11.25-1.39,28.12,28.12,0,0,0-10.67,1.9,22.26,22.26,0,0,0-8,5.4,24.12,24.12,0,0,0-5,8.33,32.58,32.58,0,0,0-.15,20.68,22,22,0,0,0,4.6,7.82,20.69,20.69,0,0,0,7.16,5,23.34,23.34,0,0,0,9.14,1.76,22.61,22.61,0,0,0,17.46-7.89,25,25,0,0,0,4.75-8.55,30.13,30.13,0,0,0,1.46-10.3V379.22A58.68,58.68,0,0,0,650.63,375.79Z" transform="translate(-551.6 -162.04)"/><path class="cls-2" d="M700.28,326.76H714v46a39.2,39.2,0,0,1,10.89-8.11,32.55,32.55,0,0,1,14.83-3.14q13,0,20,8.11t7,22.87v44.12H753V394.42q0-9.94-4.38-15.13t-12.57-5.18a24.6,24.6,0,0,0-12.27,3.21,37,37,0,0,0-9.79,7.89v51.43H700.28Z" transform="translate(-551.6 -162.04)"/><path class="cls-2" d="M830,434.16a33.83,33.83,0,0,1-15.41,3.8,35.61,35.61,0,0,1-13.88-2.63,30.59,30.59,0,0,1-10.82-7.53,33.91,33.91,0,0,1-7-11.83,45.43,45.43,0,0,1-2.49-15.42,42.36,42.36,0,0,1,2.85-15.78,37.34,37.34,0,0,1,7.89-12.35,35.17,35.17,0,0,1,12-8,39.37,39.37,0,0,1,15.12-2.85,47.19,47.19,0,0,1,12.27,1.53,62.71,62.71,0,0,1,11.11,4.17l.29-4.24h12.71v47.64a23.58,23.58,0,0,0,1.54,8.91,11.51,11.51,0,0,0,6.21,6l-6.72,12a20.07,20.07,0,0,1-9-5.92,24,24,0,0,1-4.9-9.28A26.77,26.77,0,0,1,830,434.16Zm1.39-58.37a42.69,42.69,0,0,0-11.25-1.39,28.12,28.12,0,0,0-10.67,1.9,22.26,22.26,0,0,0-8,5.4,24.12,24.12,0,0,0-5,8.33,32.58,32.58,0,0,0-.15,20.68,22,22,0,0,0,4.6,7.82,20.69,20.69,0,0,0,7.16,5,23.31,23.31,0,0,0,9.14,1.76,22.61,22.61,0,0,0,17.46-7.89,25,25,0,0,0,4.75-8.55,30.13,30.13,0,0,0,1.46-10.3V379.22A58.68,58.68,0,0,0,831.42,375.79Z" transform="translate(-551.6 -162.04)"/><path class="cls-2" d="M771.39,263.46c-13.36,0-21.76,6.78-29.89,13.34l-1.73,1.42c-8.21,6.7-16,13-32.2,13s-24-6.32-32.2-13l-1.74-1.41c-8.13-6.56-16.53-13.34-29.89-13.34h-37.8l-2.21,13.24h40c8.71,0,14.69,4.83,21.61,10.42l1.63,1.32c9.69,7.89,19.71,16,40.59,16s30.9-8.15,40.59-16l1.62-1.32c6.92-5.59,12.9-10.42,21.61-10.42h40L809,263.46Z" transform="translate(-551.6 -162.04)"/></svg>