<svg id="Capa_1" data-name="Capa 1" xmlns="http://www.w3.org/2000/svg" viewBox="0 0 207.67 142.44"><defs><style>.cls-1{fill:#117e89;}.cls-2{fill:#0b353f;}</style></defs><title>marca - raha</title><path class="cls-1" d="M1041.8,264.74a51.92,51.92,0,1,1,51.92-51.92A52,52,0,0,1,1041.8,264.74Zm0-90.52a38.61,38.61,0,1,0,38.6,38.6A38.65,38.65,0,0,0,1041.8,174.22Z" transform="translate(-937.96 -160.91)"/><path class="cls-2" d="M1105.62,262.32c-13.36,0-21.76,6.79-29.89,13.35l-1.73,1.41c-8.21,6.7-16,13-32.2,13s-24-6.33-32.2-13l-1.74-1.41c-8.12-6.56-16.52-13.35-29.88-13.35H940.17L938,275.56h40c8.7,0,14.68,4.83,21.6,10.43l1.63,1.32c9.69,7.88,19.71,16,40.59,16s30.9-8.16,40.59-16L1084,286c6.92-5.6,12.9-10.43,21.61-10.43h40l-2.41-13.24Z" transform="translate(-937.96 -160.91)"/></svg>